<svg width="1440" height="242" preserveAspectRatio="none" viewBox="0 0 1440 242" fill="none" xmlns="http://www.w3.org/2000/svg">
<path d="M401 121C401 151.853 381.47 181.541 346.404 203.993C311.338 226.445 263.385 239.965 212.35 241.788C161.314 243.612 146.5 241.788 67 241.788C27.7891 221.99 17.5324 172.638 11.4999 142C5.46745 111.362 -0.499915 109.5 -0.5 61.5C-0.500043 37 114.794 7.34395 165.116 1.89905C215.438 -3.54585 267.306 2.81592 310.114 19.6835C352.922 36.5512 383.436 62.6504 395.417 92.6445L200.5 121H401Z" fill="black"/>
<path d="M465.394 127.148C465.394 191.131 515.656 213.313 357.768 243C251 207.569 251 205.835 251 141.852C251 77.8688 299.186 26 358.626 26C418.067 26 465.394 63.1645 465.394 127.148Z" fill="black"/>
<ellipse cx="587.106" cy="109.58" rx="185.853" ry="104.202" fill="black"/>
<ellipse cx="748.656" cy="119.71" rx="105.317" ry="94.5" fill="black"/>
<ellipse cx="970.727" cy="119.21" rx="151.065" ry="95" fill="black"/>
<ellipse cx="1200.42" cy="99.7102" rx="123.426" ry="75.5" fill="black"/>
<path d="M1439 80.5C1439 122.197 1414.13 156 1339.01 156C1263.89 156 1203 122.197 1203 80.5C1203 38.8025 1263.89 5 1339.01 5C1414.13 5 1448.5 42 1439 80.5Z" fill="black"/>
<rect y="58" width="1445" height="184" fill="black"/>
</svg>
