<svg id="Layer_3" enable-background="new 0 0 64 64" height="512" viewBox="0 0 64 64" width="512" xmlns="http://www.w3.org/2000/svg"><path d="m10 33-.76-.76c-.79-.79-1.87-1.24-3-1.24-1.16 0-2.21.47-2.98 1.22-.01.01-.01.01-.02.02l1.76 1.76 22 22 3-3z" fill="#e6e9ed"/><path d="m33 56-6 6-23.76-23.76c-.79-.79-1.24-1.87-1.24-3 0-.44.07-.86.19-1.26l1.31-1.48 23.5 23.5 3-3z" fill="#aab2bd"/><path d="m62 27-8 8-3 3-3 3-3 3-12 12-3-3-20-20 29-29z" fill="#ff826e"/><path d="m39 4-29 29-.76-.76c-.79-.79-1.87-1.24-3-1.24-1.16 0-2.21.47-2.98 1.22l28.34-28.8c.9-.91 2.12-1.42 3.39-1.43 1.27 0 2.5.5 3.4 1.4z" fill="#fc6e51"/><path d="m52.38 45.38c.4.4.62.94.62 1.5 0 .58-.24 1.12-.62 1.5s-.92.62-1.5.62c-.56 0-1.1-.22-1.5-.62l-4.38-4.38 3-3z" fill="#b4dd7f"/><path d="m58.38 39.38c.4.4.62.94.62 1.5 0 .58-.24 1.12-.62 1.5s-.92.62-1.5.62c-.56 0-1.1-.22-1.5-.62l-4.38-4.38 3-3z" fill="#b4dd7f"/><path d="m47.2 20.93c.52.69.8 1.54.8 2.41 0 1.06-.42 2.08-1.18 2.84l-2.11 2.11c-.46.46-1.07.71-1.71.71s-1.25-.25-1.71-.71l-.23-.23c-.68-.68-1.6-1.06-2.56-1.06s-1.88.38-2.56 1.06l-1.88 1.88c-.68.68-1.06 1.6-1.06 2.56s.38 1.88 1.06 2.56l.23.23c.46.46.71 1.07.71 1.71s-.25 1.25-.71 1.71l-2.11 2.11c-.76.76-1.78 1.18-2.84 1.18-.87 0-1.72-.28-2.41-.8l-.07-.06c-.9-.68-1.62-1.54-2.1-2.52-.5-.98-.76-2.06-.76-3.19 0-.94.19-1.88.55-2.75l.43-1.04c1.28-3.07 3.18-5.8 5.53-8.05 2.36-2.25 5.18-4.02 8.31-5.16.78-.28 1.61-.43 2.44-.43h.17c2.25 0 4.36 1.06 5.71 2.86z" fill="#fcd770"/><path d="m53.586 27h2.828v2h-2.828z" transform="matrix(.707 -.707 .707 .707 -3.69 47.092)"/><path d="m38.722 35.5h15.556v2h-15.556z" transform="matrix(.707 -.707 .707 .707 -12.19 43.571)"/><path d="m40.586 29c1.289 1.289 3.539 1.289 4.828 0l2.117-2.117c.948-.947 1.469-2.206 1.469-3.545 0-1.079-.356-2.147-1.058-3.08-1.529-2.04-3.963-3.258-6.513-3.258h-.17c-.952 0-1.889.165-2.783.49-6.501 2.364-11.756 7.382-14.416 13.768l-.433 1.038c-.416.997-.627 2.051-.627 3.133 0 2.55 1.218 4.984 3.329 6.568.861.647 1.93 1.003 3.009 1.003 1.339 0 2.598-.521 3.545-1.469l2.117-2.117c.645-.645 1-1.502 1-2.414s-.355-1.77-1-2.414l-.232-.232c-.488-.489-.768-1.164-.768-1.854s.28-1.365.768-1.854l1.879-1.879c.977-.975 2.73-.975 3.707 0zm-5.354-1.646-1.879 1.879c-.86.86-1.353 2.05-1.353 3.267s.493 2.407 1.354 3.268l.232.232c.267.268.414.622.414 1s-.147.732-.414 1l-2.117 2.117c-1.028 1.028-2.688 1.219-4.012.226-1.538-1.155-2.457-2.991-2.457-4.914 0-.816.159-1.61.473-2.362l.433-1.039c2.446-5.871 7.277-10.484 13.254-12.658.674-.246 1.38-.37 2.099-.37h.17c1.923 0 3.76.919 4.969 2.53.388.518.602 1.159.602 1.808 0 .805-.313 1.562-.883 2.131l-2.117 2.117c-.535.533-1.465.533-2 0l-.232-.232c-.861-.861-2.051-1.354-3.268-1.354s-2.407.493-3.268 1.354z"/><path d="m55.414 35 8-8-24.316-24.316c-1.082-1.083-2.551-1.688-4.112-1.692-1.551.007-3.005.62-4.094 1.726l-28.343 28.804.003.003c-.957.95-1.552 2.265-1.552 3.717 0 1.4.545 2.717 1.535 3.707l24.465 24.465 6.707-6.707.707-.707 10.586-10.586 3.672 3.672c.581.581 1.385.914 2.207.914 1.721 0 3.121-1.4 3.121-3.121 0-.822-.333-1.626-.914-2.207l-3.672-3.672 1.586-1.586 3.672 3.672c.581.581 1.385.914 2.207.914 1.721 0 3.121-1.4 3.121-3.121 0-.822-.333-1.626-.914-2.207zm-23.097-30.88c.712-.724 1.663-1.124 2.678-1.129h.017c.949 0 1.87.374 2.564 1.019l-27.576 27.576-.051-.051c-.857-.857-1.962-1.355-3.15-1.481zm-5.317 56.466-23.051-23.051c-.612-.612-.949-1.427-.949-2.293 0-1.788 1.454-3.242 3.242-3.242.866 0 1.681.337 2.293.949l20.051 20.051-1.586 1.586-21.293-21.293-1.414 1.414 22.707 22.707 3-3 1.586 1.586zm6-6-21.586-21.586 27.586-27.586 21.586 21.586zm18.672-8.5c.209.209.328.498.328.793 0 .618-.503 1.121-1.121 1.121-.295 0-.584-.119-.793-.328l-3.672-3.672 1.586-1.586zm5.207-4.086c-.295 0-.584-.119-.793-.328l-3.672-3.672 1.586-1.586 3.672 3.672c.209.209.328.498.328.793 0 .618-.503 1.121-1.121 1.121z"/></svg>